<svg id="all-types" enable-background="new 0 0 300 300" height="512" viewBox="0 0 300 300" width="512" xmlns="http://www.w3.org/2000/svg" xmlns:xlink="http://www.w3.org/1999/xlink"><linearGradient id="SVGID_1_" gradientUnits="userSpaceOnUse" x1="66.333" x2="213.344" y1="216.027" y2="69.016"><stop offset="0" stop-color="#107eff"/><stop offset="1" stop-color="#8f16ff"/></linearGradient><g><path d="m154 52.684c-57.348 0-104 46.652-104 104s46.652 104 104 104 104-46.652 104-104-46.652-104-104-104zm0 186c-45.215 0-82-36.785-82-82s36.785-82 82-82 82 36.785 82 82-36.785 82-82 82zm-104-168h-4c-2.211 0-4-1.789-4-4s1.789-4 4-4h4v-4c0-2.211 1.789-4 4-4s4 1.789 4 4v4h4c2.211 0 4 1.789 4 4s-1.789 4-4 4h-4v4c0 2.211-1.789 4-4 4s-4-1.789-4-4zm39.108-27.268c0-2.264 1.835-4.099 4.099-4.099s4.099 1.835 4.099 4.099-1.835 4.099-4.099 4.099-4.099-1.836-4.099-4.099zm68.638 88.65c-.586-1.562-2.078-2.598-3.746-2.598s-3.16 1.035-3.746 2.598l-7.953 21.215c-.461 1.227-.289 2.602.457 3.68.75 1.078 1.977 1.723 3.289 1.723h15.906c1.312 0 2.539-.645 3.289-1.723.746-1.078.918-2.453.457-3.68zm-5.93 18.618 2.184-5.82 2.184 5.82zm37.422 19.785-24-64c-1.75-4.656-6.266-7.785-11.238-7.785s-9.488 3.129-11.238 7.785l-24 64.004c-2.32 6.191.828 13.121 7.035 15.453 6.188 2.297 13.117-.852 15.441-7.027l1.578-4.215h22.367l1.578 4.215c1.754 4.66 6.27 7.789 11.238 7.789 1.426 0 2.84-.258 4.215-.766 6.195-2.328 9.344-9.258 7.023-15.449v-.004zm-9.82 7.957c-2.109.777-4.414-.344-5.164-2.34l-2.555-6.809c-.586-1.559-2.078-2.594-3.746-2.594h-27.906c-1.668 0-3.16 1.035-3.746 2.594l-2.555 6.809c-.773 2.066-3.102 3.113-5.148 2.344-2.066-.773-3.117-3.086-2.344-5.148l24-64c.582-1.555 2.09-2.598 3.746-2.598s3.164 1.043 3.746 2.598l24 63.996c.774 2.066-.277 4.378-2.328 5.148zm2.582 16.258c0 2.211-1.789 4-4 4h-48c-2.211 0-4-1.789-4-4s1.789-4 4-4h48c2.211 0 4 1.789 4 4zm0 12c0 2.211-1.789 4-4 4h-48c-2.211 0-4-1.789-4-4s1.789-4 4-4h48c2.211 0 4 1.789 4 4z" fill="url(#SVGID_1_)"/></g></svg>