<?xml version="1.0" standalone="no"?>
<!DOCTYPE svg PUBLIC "-//W3C//DTD SVG 20010904//EN"
 "http://www.w3.org/TR/2001/REC-SVG-20010904/DTD/svg10.dtd">
<svg version="1.0" xmlns="http://www.w3.org/2000/svg"
 width="700.000000pt" height="700.000000pt" viewBox="0 0 700.000000 700.000000"
 preserveAspectRatio="xMidYMid meet">
<metadata>
Created by potrace 1.14, written by Peter Selinger 2001-2017
</metadata>
<g transform="translate(0.000000,700.000000) scale(0.100000,-0.100000)"
fill="#000000" stroke="none">
<path d="M2108 6050 c-27 -27 -30 -36 -25 -73 16 -121 187 -106 187 16 0 14
-13 39 -29 56 -40 43 -90 43 -133 1z"/>
<path d="M3409 5766 c-2 -2 -35 -7 -74 -11 -131 -12 -178 -20 -338 -61 -176
-43 -297 -88 -472 -174 -303 -149 -592 -376 -797 -627 -34 -43 -66 -80 -69
-83 -30 -26 -187 -286 -245 -405 -87 -179 -168 -408 -189 -535 -3 -19 -8 -42
-10 -50 -2 -8 -7 -28 -10 -45 -2 -16 -7 -41 -10 -55 -3 -14 -8 -59 -11 -100
-3 -41 -8 -78 -10 -82 -6 -9 -6 -366 0 -393 2 -11 7 -51 11 -88 3 -37 8 -78
11 -90 2 -12 9 -49 14 -82 21 -117 82 -326 121 -412 10 -24 19 -47 19 -52 0
-5 16 -41 35 -80 19 -39 35 -72 35 -75 0 -2 21 -41 46 -87 297 -539 802 -957
1379 -1142 260 -83 478 -118 750 -118 178 0 252 6 440 41 465 85 884 299 1235
633 130 124 240 257 353 426 190 284 328 654 378 1011 14 104 20 450 9 545
-37 317 -113 582 -247 850 -24 50 -50 99 -56 110 -7 10 -30 49 -51 85 -111
183 -256 355 -466 550 -30 29 -155 127 -185 146 -16 10 -32 21 -35 25 -3 3
-41 29 -85 56 -245 153 -526 267 -796 323 -93 19 -116 22 -254 39 -69 8 -419
14 -426 7z m438 -526 c156 -23 352 -74 453 -117 309 -133 563 -316 750 -542
25 -29 50 -59 55 -65 6 -6 43 -60 83 -119 209 -313 322 -694 317 -1070 -2
-106 -9 -205 -19 -257 -1 -8 -6 -37 -10 -65 -13 -81 -55 -233 -93 -335 -140
-375 -407 -704 -761 -938 -35 -23 -65 -42 -67 -42 -2 0 -29 -15 -62 -33 -172
-98 -447 -185 -663 -212 -170 -21 -454 -10 -615 25 -27 5 -61 13 -75 16 -108
23 -324 104 -435 164 -304 164 -571 416 -746 702 -123 202 -229 488 -255 686
-3 26 -9 74 -14 107 -9 65 -5 388 5 445 3 19 11 60 16 90 6 30 13 68 16 84 11
65 65 231 107 328 274 642 891 1095 1571 1154 39 4 71 8 73 9 8 6 303 -5 369
-15z"/>
<path d="M3511 4684 c-44 -14 -101 -52 -134 -89 -29 -33 -43 -70 -336 -851
-204 -546 -282 -766 -285 -804 -8 -108 56 -215 157 -267 40 -20 66 -26 119
-26 123 0 219 68 267 190 12 32 26 65 30 73 7 12 48 15 257 15 137 1 254 -1
261 -3 6 -2 22 -33 34 -69 29 -80 84 -145 153 -180 143 -72 331 6 382 159 30
92 19 143 -99 458 -59 157 -114 301 -122 320 -8 19 -44 116 -80 215 -36 99
-70 189 -75 200 -5 11 -50 130 -100 265 -98 264 -112 292 -166 339 -68 60
-173 82 -263 55z m129 -189 c31 -16 29 -11 170 -390 45 -121 85 -229 90 -240
5 -11 86 -226 180 -478 158 -421 170 -460 161 -490 -11 -34 -55 -67 -88 -67
-10 0 -31 8 -48 19 -24 14 -38 39 -68 119 -58 153 -23 142 -438 142 -251 0
-355 -3 -375 -12 -23 -11 -74 -97 -74 -126 0 -5 -9 -32 -21 -60 -32 -78 -107
-103 -161 -55 -43 39 -40 50 182 643 117 311 227 606 245 655 18 50 51 140 74
200 56 147 95 179 171 140z"/>
<path d="M3543 3961 c-17 -11 -34 -30 -38 -43 -7 -21 -33 -91 -151 -403 -18
-49 -35 -101 -37 -115 -6 -35 19 -79 51 -92 21 -8 321 -15 424 -9 32 2 78 51
78 84 0 29 -177 516 -202 556 -13 22 -50 41 -76 41 -9 0 -31 -9 -49 -19z m76
-411 c12 -30 21 -57 21 -60 0 -3 -22 -6 -49 -6 l-49 0 17 46 c10 25 21 54 25
64 8 24 10 22 35 -44z"/>
<path d="M2969 2521 c-31 -31 -36 -64 -18 -105 24 -52 22 -52 652 -51 l585 0
25 23 c49 46 38 131 -19 152 -15 6 -262 10 -610 10 l-586 0 -29 -29z"/>
<path d="M2969 2241 c-31 -31 -36 -64 -18 -104 24 -53 17 -52 650 -52 l587 0
25 23 c30 28 39 65 25 103 -21 61 0 59 -648 59 l-592 0 -29 -29z"/>
<path d="M1222 5715 c-40 -17 -53 -43 -56 -113 -2 -31 -4 -60 -5 -63 0 -3 -21
-4 -46 -2 -88 7 -144 -40 -131 -110 10 -53 37 -71 114 -75 l67 -4 2 -58 c2
-72 15 -98 59 -116 29 -12 39 -12 68 0 44 18 58 45 59 117 l1 59 56 0 c71 0
116 26 125 72 14 75 -36 119 -128 115 -26 -1 -48 3 -49 8 0 6 -2 28 -3 50 -2
22 -3 47 -4 56 -3 49 -77 85 -129 64z"/>
</g>
</svg>
